<?xml version="1.0" encoding="UTF-8" standalone="no"?>
<!-- Created with Inkscape (http://www.inkscape.org/) -->

<svg
   width="108"
   height="108"
   viewBox="0 0 28.574999 28.575001"
   version="1.1"
   id="svg5"
   xmlns="http://www.w3.org/2000/svg"
   xmlns:svg="http://www.w3.org/2000/svg">
  <defs
     id="defs2" />
  <path
     id="path3365"
     style="color:#000000;fill:#a4c639;stroke-width:0.436365;stroke-linecap:round;stroke-miterlimit:3;paint-order:markers stroke fill"
     d="m 14.2875,5.6283989 c -4.7630496,0 -8.6591011,3.8960515 -8.6591011,8.6591011 0,4.763049 3.8960515,8.6591 8.6591011,8.6591 1.49508,0 2.904717,-0.384018 4.13527,-1.058076 -0.148542,-0.129592 -0.321069,-0.2984 -0.479464,-0.488766 -0.175523,-0.210952 -0.410974,-0.489756 -0.555358,-0.832719 -0.0859,-0.204047 -0.0436,-0.406603 -0.01269,-0.57523 -0.02498,0.04834 -0.05731,0.103478 -0.07505,0.141429 -0.01623,0.03473 -0.02668,0.06334 -0.05602,0.101474 -0.01467,0.01907 -0.03534,0.04672 -0.08625,0.06406 -0.05091,0.01734 -0.122526,-0.0016 -0.154959,-0.02643 -0.20903,-0.160217 -0.329738,-0.291988 -0.572059,-0.613705 -0.06896,-0.09155 -0.142183,-0.201523 -0.209712,-0.309918 -0.599458,0.226631 -1.250938,0.350721 -1.933709,0.350721 -3.008156,0 -5.4119385,-2.403783 -5.4119385,-5.411938 0,-3.008156 2.4037825,-5.4119385 5.4119385,-5.4119385 3.008155,0 5.411938,2.4037825 5.411938,5.4119385 0,1.016979 -0.275611,1.964321 -0.755558,2.773618 0.329013,0.238188 0.698928,0.667257 0.985776,0.973092 0.194355,0.207215 0.361549,0.428977 0.473122,0.59785 0.05579,0.08444 0.09673,0.153519 0.123671,0.210135 0.01347,0.02831 0.02577,0.04469 0.03129,0.09746 0.0014,0.01319 0.003,0.02975 -0.0032,0.05581 -0.0062,0.02606 -0.02577,0.06696 -0.06405,0.09281 -0.03829,0.02583 -0.08183,0.02833 -0.107816,0.02473 -0.01172,-0.0016 -0.021,-0.0041 -0.02896,-0.0068 -0.027,-0.0042 -0.05263,0.0022 -0.08118,-0.0013 0.09598,0.04774 0.192375,0.08541 0.286664,0.152634 0.15134,0.107895 0.291624,0.227288 0.385177,0.321122 0.03608,0.03618 0.06954,0.07122 0.101685,0.105702 1.187756,-1.482755 1.900542,-3.360404 1.900542,-5.396926 0,-4.7630496 -3.896051,-8.6591011 -8.6591,-8.6591011 z m 4.497616,11.6857691 c -0.164693,0.2455 -0.349961,0.475685 -0.551764,0.690022 0.09503,0.10787 0.187493,0.213929 0.275459,0.316894 0.406203,0.47547 0.863133,1.007539 1.24242,1.509213 0.194073,0.256694 0.346368,0.471979 0.509272,0.712431 0.2083,-0.199036 0.406465,-0.408584 0.594257,-0.627236 -0.03725,-0.04056 -0.07757,-0.08251 -0.121558,-0.126631 -0.07675,-0.07698 -0.209565,-0.191431 -0.346702,-0.2892 -0.137138,-0.09777 -0.286256,-0.178974 -0.36446,-0.199777 -0.0067,-0.0018 -0.08712,-0.02123 -0.158976,-0.04143 -0.03593,-0.0101 -0.07115,-0.02089 -0.102954,-0.03277 -0.0159,-0.0059 -0.0305,-0.01116 -0.05031,-0.02241 -0.0099,-0.0056 -0.02084,-0.0121 -0.03848,-0.0296 -0.0088,-0.0087 -0.01973,-0.02034 -0.03023,-0.04143 -0.0052,-0.01055 -0.01367,-0.03895 -0.01374,-0.03932 -8.2e-5,-3.71e-4 -6.95e-4,-0.05081 -6.55e-4,-0.05116 v -6.54e-4 c 0.01552,-0.100681 0.08432,-0.145792 0.141218,-0.175888 0.05689,-0.0301 0.119362,-0.04872 0.189418,-0.06152 0.06052,-0.01106 0.136807,0.0067 0.205484,0.0063 -0.004,-0.0062 -0.0047,-0.008 -0.0089,-0.01438 -0.102061,-0.154476 -0.261883,-0.365824 -0.441834,-0.557683 -0.286998,-0.305994 -0.657542,-0.721192 -0.927006,-0.923835 z m -0.764859,0.903751 c -9.4157856,-9.5475601 -4.707893,-4.77378 0,0 z M 17.8023,18.414102 c -0.389311,0.331216 -0.826676,0.607486 -1.30098,0.818133 0.05678,0.08981 0.115703,0.178031 0.167432,0.246708 0.18861,0.250408 0.282336,0.333374 0.408221,0.441834 0.02939,-0.06184 0.05491,-0.122206 0.110987,-0.208655 0.07895,-0.121693 0.171278,-0.235936 0.251782,-0.321122 0.04025,-0.04259 0.07668,-0.07757 0.112678,-0.105491 0.018,-0.01396 0.03415,-0.02644 0.063,-0.03911 0.01442,-0.0063 0.03226,-0.01379 0.06405,-0.01522 0.0318,-0.0014 0.08828,0.01204 0.123882,0.05116 0.0441,0.04845 0.04043,0.08557 0.04059,0.106336 1.6e-4,0.02077 -0.0023,0.03303 -0.0047,0.04461 -0.0047,0.02316 -0.01125,0.04166 -0.01839,0.06236 -0.01428,0.04141 -0.03295,0.08898 -0.0537,0.140584 -0.0415,0.103216 -0.08961,0.225064 -0.106125,0.292583 -0.03037,0.124829 -0.05064,0.399422 0.0015,0.523224 0.121365,0.288287 0.333207,0.545264 0.50906,0.756615 0.154362,0.185518 0.330078,0.356091 0.472276,0.477984 0.0201,0.01723 0.03707,0.03085 0.05391,0.04418 0.02957,-0.01763 0.05924,-0.03509 0.08858,-0.05306 0.0069,-0.03363 0.0151,-0.06883 0.02685,-0.106971 0.02823,-0.0917 0.07277,-0.180645 0.138258,-0.253473 0.01745,-0.0194 0.05365,-0.04868 0.107816,-0.05179 0.05416,-0.0031 0.09884,0.02595 0.119021,0.0463 0.04037,0.04069 0.0398,0.05982 0.04566,0.07822 7e-5,2.21e-4 1.42e-4,4.09e-4 2.11e-4,6.55e-4 0.200961,-0.14034 0.39598,-0.28881 0.584109,-0.445217 -0.208437,-0.283545 -0.398552,-0.53977 -0.653026,-0.836947 -0.337501,-0.394141 -0.621035,-0.766525 -0.93969,-1.171389 -0.138926,-0.17651 -0.276248,-0.350223 -0.413295,-0.523013 z m 2.62183,0.403993 c -3.68e-4,-4.1e-5 -0.0013,9e-4 -0.0017,8.59e-4 0.0011,2.65e-4 0.0021,-2.68e-4 0.0032,0 -9e-4,-1.64e-4 -5.32e-4,-6.95e-4 -0.0015,-8.59e-4 z" />
  <path
     style="color:#000000;fill:#a4c639;stroke-width:0.297657;stroke-linecap:square;stroke-miterlimit:3;-inkscape-stroke:none;paint-order:markers stroke fill"
     d="m 14.3201,13.854545 c -7.77e-4,1.47e-4 -0.0013,6.95e-4 -0.0015,0.0015 l -0.03113,0.146106 c 0,0 0.248426,0.371787 0.354119,0.514499 0.02427,0.03276 0.06995,0.09687 0.123959,0.173708 -0.02267,0.0213 -0.03803,0.04969 -0.05786,0.07379 -0.01063,0.01293 -0.02254,0.02601 -0.03369,0.03956 -0.02609,0.0083 -0.05417,0.01686 -0.07818,0.02981 -0.0012,5.32e-4 -0.01355,0.0071 -0.01337,0.0096 -2e-5,0.0015 0.009,-0.0031 0.01648,-0.0042 0.01456,-0.0023 0.02876,-0.0028 0.04339,-0.0038 0.0031,-2.26e-4 0.0062,-4.91e-4 0.0093,-7.36e-4 -6.14e-4,9.82e-4 -0.0012,0.0019 -0.0018,0.0029 -0.008,0.01357 -0.01166,0.02919 -0.01978,0.04288 -0.0065,0.01084 -0.01519,0.02015 -0.02197,0.03073 -0.02239,0.03477 -0.0427,0.07363 -0.05841,0.111696 -0.009,0.02148 -0.03008,0.07907 -0.01282,0.10231 0.0046,0.0061 0.01662,-0.03604 0.01996,-0.04398 0.009,-0.02171 0.0184,-0.04384 0.02948,-0.06459 0.04062,-0.07602 0.02367,-0.0397 0.04889,-0.0898 0.01695,-0.03371 0.03026,-0.06307 0.05072,-0.09458 0.01596,-0.0011 0.03201,-0.0023 0.04798,-0.0033 0.03743,-0.0025 0.08983,-0.01206 0.126157,0.0037 l -0.05237,-0.06625 c -0.03026,0.0084 -0.06062,0.01624 -0.09082,0.02484 0.01903,-0.02222 0.03974,-0.0432 0.05786,-0.06588 0.0025,-0.0031 0.005,-0.0067 0.0075,-0.01049 0.02739,0.0391 0.05627,0.0806 0.08752,0.126048 -0.0297,0.01626 -0.06328,0.03872 -0.06775,0.06385 -0.0044,0.02348 0.01005,0.04395 7.37e-4,0.0679 -0.01432,0.03752 -0.04036,0.07046 -0.04907,0.110224 -0.0064,0.02971 0.0025,0.05967 -0.0088,0.08851 -0.02501,0.06377 -0.07861,0.08093 -0.114256,0.132858 -0.01453,0.02121 -0.02286,0.04388 -0.0249,0.06956 -0.0011,0.01541 0.0029,0.02768 -0.0044,0.04214 l 0.03241,-0.0079 c 0.0306,-0.07553 0.09069,-0.134524 0.137693,-0.199838 0.01452,-0.02021 0.03093,-0.04099 0.03882,-0.06496 0.01161,-0.03571 -0.007,-0.06597 -0.007,-0.101575 -1.6e-5,-0.03069 0.03328,-0.05903 0.04779,-0.08391 0.0094,-0.01604 0.01553,-0.0342 0.0282,-0.04821 0.0072,-0.008 0.01471,-0.01546 0.02215,-0.023 0.02537,0.03715 0.05153,0.07602 0.07782,0.115192 -0.09879,0.185335 -0.207176,0.365487 -0.237298,0.577616 -0.0071,0.0501 -0.0018,0.09723 3.66e-4,0.147578 1.68e-4,0.0021 0.0042,0.03117 0.0046,0.03073 0.01099,-0.01627 0.0149,-0.06039 0.02051,-0.07821 0.02302,-0.07249 0.07125,-0.221928 0.119384,-0.281171 0.07213,-0.167756 0.08518,-0.215432 0.145566,-0.316686 0.0421,0.06363 0.08365,0.12753 0.123409,0.190269 -0.02165,0.03563 -0.04993,0.08297 -0.08148,0.102311 -0.02234,0.01365 -0.05169,0.01046 -0.07635,0.01766 -0.01287,0.0038 -0.02469,0.01048 -0.03717,0.01528 -0.01342,0.0052 -0.03078,0.01 -0.04047,0.02171 -9.81e-4,0.0012 -0.005,0.01068 -0.009,0.01564 0.0063,-0.0018 0.01705,-0.0043 0.02747,-0.0068 0.02588,-0.0062 0.05134,-0.0067 0.078,-0.0099 0.06831,-0.0083 0.117205,-0.06573 0.166623,-0.112064 0.02215,0.03542 0.04416,0.07085 0.06427,0.104335 0.0061,0.01013 0.01193,0.02069 0.01795,0.0311 -0.0091,0.0066 -0.01579,0.01356 -0.02381,0.02484 -0.02246,0.03157 -0.03857,0.06714 -0.06152,0.09863 -0.0749,0.102847 -0.194836,0.172793 -0.30523,0.229648 -0.03091,0.01591 -0.06091,0.02668 -0.08862,0.04766 -0.0153,0.01159 -0.03121,0.02464 -0.02929,0.02668 0.0062,0.0065 0.01708,0.0055 0.02581,0.0075 0.08551,0.01987 0.165511,-0.04401 0.234373,-0.08336 0.09879,-0.05645 0.221726,-0.08648 0.267328,-0.205357 0.0094,-0.02459 0.01493,-0.04973 0.02069,-0.07489 0.0174,0.03262 0.03394,0.06634 0.05035,0.100103 -0.06459,0.0462 -0.122021,0.109237 -0.168088,0.169107 -0.06248,0.08119 -0.127534,0.168755 -0.166073,0.264978 -0.01078,0.02702 -0.02457,0.06101 -0.02472,0.09109 -8e-6,0.0042 0.0026,0.01212 0.0046,0.01785 0.0011,-0.02818 0.06632,-0.127467 0.07324,-0.13801 0.04034,-0.06036 0.08855,-0.138889 0.155271,-0.171683 l 0.152889,-0.176836 c 0.01785,0.03846 0.03499,0.07658 0.05109,0.114456 -0.06864,0.0286 -0.115761,0.09219 -0.164973,0.14629 -0.07104,0.07809 -0.140633,0.159512 -0.181088,0.258905 -0.02985,0.07337 -0.04664,0.150651 -0.0672,0.226888 -0.007,0.02583 -0.05657,0.180019 -0.04962,0.199285 0.0017,0.0046 0.0048,-0.0085 0.0064,-0.01307 0.0046,-0.01171 0.0073,-0.02378 0.01154,-0.03551 0.01432,-0.03947 0.111413,-0.313571 0.13769,-0.34576 0.09795,-0.191154 0.117491,-0.20325 0.198482,-0.30362 0.007,-0.0079 0.0138,-0.016 0.02142,-0.02337 0.02449,-0.02369 0.05824,-0.05499 0.08917,-0.07121 0.0039,-0.002 0.0082,-0.003 0.01263,-0.0037 0.0087,0.02095 0.01782,0.04229 0.02582,0.06257 -0.101451,0.134104 -0.241084,0.407059 -0.269525,0.538052 -0.0046,0.021 -0.02599,0.140942 -0.0018,0.162483 0.0081,0.0071 0.01479,-0.01571 0.01849,-0.02558 0.01624,-0.04094 0.02949,-0.08314 0.04816,-0.123104 0.0567,-0.121247 0.123777,-0.23932 0.203242,-0.347048 0.01661,-0.02248 0.03542,-0.04336 0.05292,-0.06514 0.01991,0.05727 0.03639,0.108469 0.04632,0.146473 l -0.0075,-0.0038 c -0.07267,0.04581 -0.124802,0.123401 -0.14245,0.208119 -0.01876,0.03503 -0.0444,0.06996 -0.065,0.10415 -0.02992,0.04973 -0.05299,0.0966 -0.08404,0.145187 -0.05472,0.08557 -0.09348,0.130218 -0.184935,0.232039 -0.0011,0.0012 -0.0092,0.01571 -0.01666,0.02853 0.01404,-0.0072 0.02781,-0.01473 0.04193,-0.02171 0.04932,-0.02438 0.08946,-0.06466 0.12213,-0.108751 0.02151,-0.02905 0.03548,-0.06438 0.05493,-0.09495 0.05543,-0.08701 0.113594,-0.174223 0.162047,-0.265345 0.01896,-0.03569 0.03351,-0.117182 0.05475,-0.137273 0.02731,-0.02559 0.04307,-0.03628 0.07287,-0.04895 9e-4,0.0046 0.0027,0.01159 0.0033,0.01546 0.0068,0.047 0.01213,0.09253 0.01648,0.137088 -0.0035,0.01078 -0.0052,0.01681 -0.01135,0.02742 -0.01843,0.03157 -0.04442,0.05795 -0.0617,0.09017 -0.06303,0.117408 -0.102147,0.248641 -0.148313,0.373177 -0.02968,0.08012 -0.0703,0.159489 -0.07892,0.245657 -0.0018,0.01639 -0.0045,0.04761 0.0016,0.06514 0.01148,0.03262 0.03501,0.08005 0.03571,0.122553 0.0037,-0.01273 0.007,-0.0255 0.01044,-0.03846 0.01755,-0.06941 0.02761,-0.14083 0.04468,-0.21051 0.03516,-0.143215 0.09534,-0.196231 0.187861,-0.304909 0.01179,-0.01385 0.02337,-0.02826 0.03461,-0.04306 -0.0022,0.430235 -0.07859,0.706116 0.07159,0.827688 0.120242,-0.07396 0.140457,-0.08827 0.254327,-0.136169 0.165771,-0.06974 0.205908,-0.07488 0.244624,-0.08299 0.0095,0.04743 -0.141097,0.164127 -0.258722,0.33196 -0.155937,0.22247 -0.190052,0.241224 -0.153807,0.337662 0.05304,0.141128 0.219884,0.620013 0.36236,0.921535 0.06266,0.132597 0.259154,0.468598 0.414727,0.675142 0.240194,0.318894 0.343019,0.431765 0.543627,0.585527 0.04499,0.03448 0.07449,-0.137433 0.219538,-0.361033 0.145815,-0.224774 0.355659,-0.438167 0.380303,-0.411083 0.02132,0.02342 -0.133371,0.335585 -0.176326,0.511186 -0.03549,0.145861 -0.07055,0.428485 0.0084,0.616075 0.132874,0.315625 0.35677,0.583597 0.532459,0.794749 0.322174,0.387204 0.719815,0.698179 0.78752,0.704952 0.04955,0.005 0.05332,-0.209685 0.110411,-0.395075 0.02234,-0.07259 0.06105,-0.146284 0.106565,-0.196893 0.03045,-0.03386 0.04576,0.204397 0.05493,0.256697 0.01649,0.09401 0.03231,0.187313 0.05676,0.279515 0.135852,0.512368 0.628962,0.916757 1.031229,1.200866 0.0726,0.05127 0.09836,-0.09588 0.164975,-0.273259 0.05642,-0.150243 0.139847,-0.279723 0.159848,-0.304173 0.01046,-0.01279 0.0042,0.342405 0.0093,0.462424 0.0042,0.09887 0.04813,0.246433 0.07635,0.292396 0.224752,0.365985 1.031467,0.484224 1.187232,0.554245 0.132614,0.05961 0.292073,0.150309 0.428824,0.378514 0.07615,0.127076 0.06503,0.440912 0.112974,0.412188 0.01317,-0.0079 0.02373,-0.02711 0.03186,-0.05373 0.03523,-0.11537 0.02861,-0.371153 0.02838,-0.458007 -0.0027,-1.008227 -0.346755,-2.261807 -0.944805,-3.013204 -0.08068,-0.101363 -0.185703,-0.178113 -0.291865,-0.245841 -0.01243,-0.0079 0.02936,0.001 0.04394,0.0026 0.09791,0.01045 0.189232,0.0042 0.394218,0.119793 0.06357,0.03585 -0.01817,-0.226362 -0.05401,-0.298101 -0.22358,-0.447457 -0.356237,-0.688102 -0.713731,-1.046663 -0.170302,-0.170813 -0.546219,-0.465905 -0.777999,-0.527564 -0.03373,-0.009 -0.290308,-0.06959 -0.28692,-0.09219 0.01515,-0.09826 0.338681,-0.170884 0.623461,-0.100471 0.0764,0.03857 -0.201916,-0.427876 -0.576222,-0.826952 -0.301768,-0.321741 -0.695769,-0.772414 -1.001199,-0.980785 -0.06171,-0.0421 -0.234768,-0.0012 -0.422416,-0.0038 -0.200688,-0.0028 -0.417651,-0.04834 -0.519461,-0.0714 -0.05242,-0.01188 0.104082,-0.163061 0.315118,-0.191189 0.180077,-0.03006 0.278737,-0.03561 0.266232,-0.0495 -0.45029,-0.499798 -1.031097,-0.823189 -1.969262,-1.195713 -0.0098,-0.0039 -0.017,-0.0069 -0.02637,-0.01067 0.0081,-0.01543 0.02149,-0.02607 0.03845,-0.03625 -0.0071,0.0022 -0.01412,0.0045 -0.02106,0.0072 -0.01436,0.0054 -0.02789,0.0121 -0.04084,0.01951 -0.0182,-0.0074 -0.03659,-0.01463 -0.05328,-0.02153 0.0048,-0.01294 0.0097,-0.02588 0.01447,-0.03883 0.053,0.0033 0.10599,0.0045 0.159665,0.0027 -0.01726,0.0074 -0.03385,0.01667 -0.0498,0.02558 -0.0032,0.0018 -0.0062,0.0036 -0.0092,0.0053 0.03946,-0.01243 0.08127,-0.01928 0.121948,-0.02392 0.01305,-0.0015 0.03912,0.0054 0.05109,0.0011 0.0062,-0.0022 -0.0074,-0.01199 -0.0163,-0.01748 0.04689,-0.01198 0.09436,-0.03628 0.139524,-0.03349 0.07799,0.0048 0.12911,0.06632 0.19244,0.101575 0.04725,0.02631 0.229873,0.04447 0.280697,0.01582 0.0052,-0.0029 -0.01163,-0.0031 -0.0174,-0.0048 -0.0248,-0.007 -0.04956,-0.01464 -0.07379,-0.02355 -0.06838,-0.02509 -0.133293,-0.05181 -0.195001,-0.0909 -0.136483,-0.08646 -0.284574,-0.132298 -0.447136,-0.116296 -0.04642,0.0046 -0.09137,0.02081 -0.137692,0.02687 -0.06444,0.0084 -0.129506,0.01263 -0.194639,0.01343 -9.41e-4,-9.5e-5 -0.0018,-2.71e-4 -0.0027,-3.68e-4 -0.01844,-0.0018 -0.03759,-0.0023 -0.05585,1.84e-4 -0.03134,-5.32e-4 -0.06273,-0.0018 -0.09393,-0.0037 -0.06678,-0.03887 -0.145265,-0.08928 -0.235102,-0.14813 0.03111,-0.02089 0.06729,-0.03602 0.108764,-0.04379 0.126408,-0.0237 0.269637,0.03506 0.420034,0.02448 0.11835,-0.0083 0.160731,-0.08216 0.300835,-0.0668 0.04431,0.0049 0.08522,0.02488 0.127257,0.03809 0.05286,0.0166 0.09858,0.01236 0.150877,0 0.0093,-0.0022 0.01587,-0.003 0.02069,-0.0031 0.0019,-0.005 0.0051,-0.01053 0.0037,-0.01417 -0.0026,-0.0073 -0.01487,0.0038 -0.02252,0.0044 -0.0199,0.0014 -0.0399,0.0028 -0.05988,0.0016 -0.05606,-0.0031 -0.118476,-0.02893 -0.16937,-0.05134 -0.05054,-0.02225 -0.116796,-0.03986 -0.171933,-0.03828 -0.09278,0.0027 -0.111533,0.0091 -0.188958,0.0311 -0.108706,0.03091 -0.204332,-0.01838 -0.257259,-0.01546 -0.172806,0.0095 -0.141174,-0.03003 -0.312004,0.04895 -0.02281,0.01055 -0.04209,0.01151 -0.05621,0.0149 -0.02063,-0.01349 -0.03298,-0.02157 -0.05585,-0.03643 -0.01206,-0.0078 -0.02325,-0.01572 -0.03497,-0.02355 0.0477,-0.01848 0.08248,-0.04963 0.148862,-0.08317 0.09755,-0.04928 0.228398,-0.03852 0.334345,-0.06146 0.05185,-0.01123 0.13312,-0.04078 0.196102,-0.05079 -0.02315,-0.0025 -0.04637,-0.0053 -0.07013,-0.0099 -0.102712,-0.01991 -0.06503,0.0041 -0.157467,0.02061 -0.07146,0.01275 -0.155991,-1.4e-5 -0.250302,0.01914 -0.09792,0.01988 -0.202596,0.05963 -0.289667,0.104519 -0.02994,-0.02149 -0.05874,-0.043 -0.08642,-0.0644 0.01811,-0.0086 0.03013,-0.02263 0.04285,-0.04011 4.91e-4,-7.37e-4 0.01543,-0.02074 0.01812,-0.0254 0.0092,-0.01574 0.02863,-0.04206 0.03369,-0.06128 0.0012,-0.0045 -0.0088,0.0032 -0.01264,0.0059 -0.02939,0.02049 -0.02251,0.01623 -0.01703,0.01269 -0.0036,0.0025 -0.01028,0.0072 -0.02491,0.01711 -0.0064,0.0043 -0.04656,0.03101 -0.08569,0.05539 -0.02219,-0.01787 -0.04367,-0.03578 -0.06445,-0.05355 8.59e-4,-1.06e-4 0.0017,-5.2e-5 0.0026,-1.84e-4 0.120615,-0.01864 0.348304,-0.157986 0.433951,-0.248232 0.0221,-0.02328 0.07194,-0.04404 0.06116,-0.07434 -0.0012,-0.0033 -0.0812,0.031 -0.140256,0.05612 -0.157388,0.06697 -0.332779,0.154704 -0.504997,0.120895 l 0.03937,-0.0064 c 0.02763,-0.01682 0.04113,-0.04742 0.0617,-0.07158 0.01076,-0.01262 0.023,-0.02604 0.03497,-0.03828 -0.03799,0.01877 -0.06935,0.04402 -0.106199,0.06459 -0.01173,0.0066 -0.02417,0.01171 -0.03625,0.01767 0.004,-0.0294 0.0064,-0.0094 0.06848,-0.09329 0.02264,-0.03057 0.04008,-0.05611 0.03607,-0.09642 -7.5e-5,-7.77e-4 -2.77e-4,-0.0016 -3.67e-4,-0.0024 0.0333,0.0022 0.06722,0.0049 0.101619,0.005 0.01756,0.0086 0.05783,0.02407 0.07471,0.0414 0.0054,0.0055 -0.0081,0.0011 -0.0046,0.01638 9.81e-4,0.0044 0.01056,0.007 0.01337,0.0033 0.0079,-0.01051 -0.02298,-0.06998 -0.02582,-0.07379 -0.0061,-0.008 -0.01393,-0.01457 -0.02197,-0.02061 -0.08161,-0.01915 -0.193245,-0.0127 -0.294244,0.0024 0.0039,-0.0027 0.0076,-0.0049 0.01135,-0.0068 -0.02187,4.8e-5 -0.04714,-0.0028 -0.05713,-1.83e-4 -0.01728,0.0045 -0.03442,0.0129 -0.04926,0.02263 -0.0012,7.77e-4 -0.0023,0.0016 -0.0035,0.0024 -0.01086,0.0023 -0.02144,0.0046 -0.03149,0.007 l -0.0084,0.02079 c -0.01276,-0.01532 -0.02574,-0.0306 -0.0379,-0.04563 0.01521,-0.0016 0.02998,-0.0034 0.0315,-0.0038 0.04625,-0.01331 0.07722,-0.05468 0.121029,-0.07287 0.0181,-0.0075 0.03346,-0.0043 0.05182,-0.0081 0.01626,-0.0033 0.03261,-0.01428 0.04761,-0.02097 0.0076,-0.0034 0.02143,-0.0058 0.0271,-0.0127 0.0012,-0.0015 -0.0039,-0.0011 -0.0057,-0.0013 -0.0095,-9e-4 -0.01903,-0.002 -0.02856,-0.0026 -0.03415,-0.0019 -0.06753,0.0067 -0.09924,0.01877 -0.01272,0.0049 -0.0253,0.01031 -0.03717,0.01711 -0.02446,0.01404 -0.04029,0.03787 -0.07086,0.04011 -0.01222,9e-4 -0.02426,-0.0026 -0.03644,-0.0026 -0.01136,4.9e-5 -0.02356,0.0031 -0.03296,0.0092 -0.04612,-0.05834 -0.08892,-0.114807 -0.129635,-0.167635 -0.150907,-0.195772 -0.448343,-0.49404 -0.471853,-0.489473 z m 0.821027,0.689862 c 0.01559,-3.4e-5 0.02949,-0.0015 0.03479,-0.0075 4.09e-4,-4.91e-4 -0.01533,3.55e-4 -0.01611,5.32e-4 -0.0069,0.002 -0.01289,0.0041 -0.01867,0.007 z m 0.183834,0.14261 c 9.82e-4,-4.91e-4 0.002,-9.82e-4 0.0029,-0.0015 0.01134,-0.0055 0.05535,-0.0182 0.05493,-0.03551 -3.99e-4,-0.01586 -0.02833,0.0068 -0.05786,0.03699 z m 0.975567,0.281355 c 0.02817,0.0031 0.05623,0.0058 0.08496,0.01086 0.0165,0.0029 -0.03141,-0.01423 -0.04816,-0.01417 -0.01118,3.9e-5 -0.02355,0.0012 -0.0368,0.0033 z m 0.645984,0.273626 c -7.78e-4,0.002 -0.0013,0.0039 -0.0013,0.0055 1.39e-4,0.01446 0.02558,-0.0061 0.0013,-0.0055 z m -1.609647,2.048796 c -0.0036,0.01235 -0.0076,0.02465 -0.01227,0.03681 -0.0024,0.0059 -0.01044,0.0201 -0.01044,0.02227 2.02e-4,2.8e-5 7.77e-4,-4.4e-5 0.0015,-7.36e-4 0.01614,-0.01644 0.0216,-0.03672 0.02124,-0.05833 z m -0.265499,-0.399676 c -9.82e-4,4.91e-4 -0.002,9.82e-4 -0.0029,0.0015 -0.0041,0.002 -0.01125,0.01834 -0.0093,0.01804 7.77e-4,-1.47e-4 0.0063,-0.0094 0.01227,-0.01951 z m -0.06994,-0.725929 c -8.9e-5,0.0023 2.97e-4,0.004 0.0011,0.0053 0.002,0.0032 6.96e-4,-1.12e-4 -0.0011,-0.0053 z m 0.212579,-1.590788 c 0.01936,-2.18e-4 0.03906,6.14e-4 0.05896,0.0018 -0.0064,0.01726 -0.01426,0.03463 -0.0216,0.04987 -0.01571,0.03253 -0.0628,0.09939 -0.109861,0.139298 -0.0301,-0.03123 -0.05766,-0.06175 -0.08459,-0.09219 0.0031,-0.0081 0.0059,-0.01623 0.0095,-0.0241 0.0077,-0.01673 0.01591,-0.03579 0.026,-0.05336 0.01233,-0.0047 0.02736,-0.009 0.04688,-0.01343 0.02439,-0.0056 0.04923,-0.0076 0.0747,-0.0079 z m -0.30285,0.869643 c -0.0037,0.0011 -0.0058,0.0018 -0.0051,0.0024 0.0013,0.0012 0.0032,-2e-6 0.0051,-0.0024 z m 1.186133,0.632083 c 0.354627,0.234595 0.761737,0.606173 1.124062,1.016117 0.390875,0.442246 0.819556,0.910286 1.174232,1.325442 0.406338,0.475628 0.8617,1.006626 1.236853,1.50283 0.323356,0.427694 0.523001,0.72563 0.867353,1.252204 0.347507,0.531399 0.70554,1.069961 0.971355,1.648752 0.02112,0.04599 0.171011,0.354004 0.164792,0.413845 -4.09e-4,0.004 -0.0016,0.0068 -0.0035,0.0085 -0.0051,0.0044 -0.242878,-0.371504 -0.257442,-0.392683 -0.314009,-0.456642 -0.630219,-0.914973 -0.969524,-1.355436 -0.46438,-0.602828 -0.703495,-0.977765 -1.136879,-1.483877 -0.33416,-0.390238 -0.616487,-0.760848 -0.936018,-1.166823 -0.430703,-0.547222 -0.845919,-1.072336 -1.289585,-1.605509 -0.398834,-0.479296 -0.70272,-0.827812 -0.945721,-1.163327 z"
     id="path3994" />
</svg>
